{"asset":{"version":"2.0","generator":"VECTARY"},"nodes":[{"translation":[0,0.02985698770761741,-0.04049172369888651],"scale":[0.0010584666360663841,0.0010584666360663841,0.0010584666360663841],"rotation":[-0.7071067811865475,0,0,0.7071067811865476],"name":"Torus","mesh":0}],"materials":[{"pbrMetallicRoughness":{"baseColorFactor":[0,0,0,1],"metallicRoughnessTexture":{"index":1,"extensions":{"KHR_texture_transform":{"offset":[0,0],"scale":[1,1],"rotation":0}},"texCoord":0},"metallicFactor":0,"roughnessFactor":1},"name":"Plastic Textured","normalTexture":{"index":0,"scale":1,"extensions":{"KHR_texture_transform":{"offset":[0,0],"scale":[1,1],"rotation":0}},"texCoord":0},"emissiveFactor":[0,0,0],"alphaMode":"OPAQUE","doubleSided":false}],"textures":[{"sampler":0,"source":0},{"sampler":0,"source":1}],"images":[{"uri":"Plastic_002_NormalMap.jpg","mimeType":"image/jpeg"},{"uri":"metallicTexture&Plastic_002_Roughness.jpg","mimeType":"image/jpeg"}],"samplers":[{"wrapS":10497,"wrapT":10497}],"meshes":[{"primitives":[{"mode":4,"attributes":{"POSITION":1,"NORMAL":2,"TEXCOORD_0":3},"material":0,"indices":0}]}],"accessors":[{"bufferView":0,"byteOffset":0,"componentType":5125,"count":24576,"type":"SCALAR"},{"bufferView":1,"byteOffset":0,"componentType":5126,"count":4257,"max":[120.69999694824219,120.69999694824219,40],"min":[-120.69999694824219,-120.69999694824219,0],"type":"VEC3"},{"bufferView":2,"byteOffset":0,"componentType":5126,"count":4257,"type":"VEC3"},{"bufferView":3,"byteOffset":0,"componentType":5126,"count":4257,"type":"VEC2"}],"bufferViews":[{"buffer":0,"byteOffset":0,"byteLength":98304,"target":34963},{"buffer":0,"byteOffset":98304,"byteLength":51084,"target":34962},{"buffer":0,"byteOffset":149388,"byteLength":51084,"target":34962},{"buffer":0,"byteOffset":200472,"byteLength":34056,"target":34962}],"scene":0,"scenes":[{"nodes":[0],"name":"Project Name"}],"extensionsUsed":["KHR_texture_transform"],"buffers":[{"byteLength":234528,"uri":"ProjectName.bin"}]}