{
  "asset": {
    "version": "2.0",
    "generator": "VECTARY"
  },
  "nodes": [
    {
      "translation": [
        -0.14599999999999994,
        0,
        0
      ],
      "scale": [
        0.001,
        0.001,
        0.001
      ],
      "rotation": [
        -0.1022333780909665,
        0.47218544823236147,
        0.5807793238012527,
        0.6551981501245809
      ],
      "name": "Tube",
      "mesh": 0
    }
  ],
  "materials": [
    {
      "pbrMetallicRoughness": {
        "baseColorFactor": [
          0.00775102739766061,
          0.00775102739766061,
          0.00775102739766061,
          1
        ],
        "metallicFactor": 0,
        "roughnessFactor": 1
      },
      "name": "Bermuda",
      "emissiveFactor": [
        0,
        0,
        0
      ],
      "alphaMode": "OPAQUE",
      "doubleSided": false
    }
  ],
  "meshes": [
    {
      "primitives": [
        {
          "mode": 4,
          "attributes": {
            "POSITION": 1,
            "NORMAL": 2
          },
          "material": 0,
          "indices": 0
        }
      ]
    }
  ],
  "accessors": [
    {
      "bufferView": 0,
      "byteOffset": 0,
      "componentType": 5125,
      "count": 111360,
      "type": "SCALAR"
    },
    {
      "bufferView": 1,
      "byteOffset": 0,
      "componentType": 5126,
      "count": 18886,
      "max": [
        50,
        49.92667007446289,
        100
      ],
      "min": [
        -50,
        -49.92667007446289,
        0
      ],
      "type": "VEC3"
    },
    {
      "bufferView": 2,
      "byteOffset": 0,
      "componentType": 5126,
      "count": 18886,
      "type": "VEC3"
    }
  ],
  "bufferViews": [
    {
      "buffer": 0,
      "byteOffset": 0,
      "byteLength": 445440,
      "target": 34963
    },
    {
      "buffer": 0,
      "byteOffset": 445440,
      "byteLength": 226632,
      "target": 34962,
      "byteStride": 12
    },
    {
      "buffer": 0,
      "byteOffset": 672072,
      "byteLength": 226632,
      "target": 34962,
      "byteStride": 12
    }
  ],
  "scene": 0,
  "scenes": [
    {
      "nodes": [
        0
      ],
      "name": "Project Name"
    }
  ],
  "extensionsUsed": [
    "KHR_texture_transform"
  ],
  "buffers": [
    {
      "name": "model",
      "byteLength": 898704,
      "uri": "data:application/octet-stream;base64,"
    }
  ]
}
