{
  "accessors": [
    {
      "bufferView": 2,
      "componentType": 5126,
      "count": 55940,
      "max": [
        133.17991638183594,
        -0.029409529641270638,
        138.38516235351563
      ],
      "min": [
        -0.016765205189585686,
        -200.01478576660156,
        0.010879104025661945
      ],
      "type": "VEC3"
    },
    {
      "bufferView": 2,
      "byteOffset": 671280,
      "componentType": 5126,
      "count": 55940,
      "max": [
        0.9999756813049316,
        0.9999996423721313,
        0.9999374747276306
      ],
      "min": [
        -0.9999615550041199,
        -1.0,
        -0.9999234676361084
      ],
      "type": "VEC3"
    },
    {
      "bufferView": 3,
      "componentType": 5126,
      "count": 55940,
      "max": [
        0.9999915957450867,
        0.9999641180038452,
        0.9998393058776855,
        1.0
      ],
      "min": [
        -0.9999508261680603,
        -0.9999390840530396,
        -0.9997906684875488,
        -1.0
      ],
      "type": "VEC4"
    },
    {
      "bufferView": 1,
      "componentType": 5126,
      "count": 55940,
      "max": [
        0.9990100264549255,
        0.998989999294281
      ],
      "min": [
        0.0009899999713525176,
        0.0010100000072270632
      ],
      "type": "VEC2"
    },
    {
      "bufferView": 0,
      "componentType": 5125,
      "count": 300000,
      "type": "SCALAR"
    }
  ],
  "asset": {
    "extras": {
      "author": "Thomas Flynn (https://sketchfab.com/nebulousflynn)",
      "license": "CC-BY-4.0 (http://creativecommons.org/licenses/by/4.0/)",
      "source": "https://sketchfab.com/3d-models/head-of-michelangelos-david-optimised-d29af50360624e5e9b1855666475380d",
      "title": "Head Of Michelangelo's David, Optimised"
    },
    "generator": "Sketchfab-12.37.0",
    "version": "2.0"
  },
  "bufferViews": [
    {
      "buffer": 0,
      "byteLength": 1200000,
      "name": "floatBufferViews",
      "target": 34963
    },
    {
      "buffer": 0,
      "byteLength": 447520,
      "byteOffset": 1200000,
      "byteStride": 8,
      "name": "floatBufferViews",
      "target": 34962
    },
    {
      "buffer": 0,
      "byteLength": 1342560,
      "byteOffset": 1647520,
      "byteStride": 12,
      "name": "floatBufferViews",
      "target": 34962
    },
    {
      "buffer": 0,
      "byteLength": 895040,
      "byteOffset": 2990080,
      "byteStride": 16,
      "name": "floatBufferViews",
      "target": 34962
    }
  ],
  "buffers": [
    {
      "byteLength": 3885120,
      "uri": "scene.bin"
    }
  ],
  "images": [
    {
      "uri": "textures/material_0_metallicRoughness.png"
    },
    {
      "uri": "textures/material_0_normal.jpeg"
    }
  ],
  "materials": [
    {
      "doubleSided": true,
      "name": "material_0",
      "normalTexture": {
        "index": 1
      },
      "occlusionTexture": {
        "index": 0
      },
      "pbrMetallicRoughness": {
        "baseColorFactor": [
          0.55,
          0.55,
          0.55,
          1.0
        ],
        "metallicFactor": 0.2,
        "metallicRoughnessTexture": {
          "index": 0
        },
        "roughnessFactor": 0.5734756708107518
      }
    }
  ],
  "meshes": [
    {
      "name": "Object_0",
      "primitives": [
        {
          "attributes": {
            "NORMAL": 1,
            "POSITION": 0,
            "TANGENT": 2,
            "TEXCOORD_0": 3
          },
          "indices": 4,
          "material": 0,
          "mode": 4
        }
      ]
    }
  ],
  "nodes": [
    {
      "children": [
        1
      ],
      "matrix": [
        0.003321832896242216,
        3.477146933233202e-05,
        -0.00027446039685604176,
        0.0,
        3.8078505847020504e-05,
        -0.003332892140983784,
        3.862444094466168e-05,
        0.0,
        -0.0002740211602839486,
        -4.1626494144047327e-05,
        -0.003321790378261247,
        0.0,
        7.060845375061035,
        -30.64132308959965,
        175.6218719482422,
        1.0
      ],
      "name": "Sketchfab_model"
    },
    {
      "children": [
        2
      ],
      "name": "rapid.obj.cleaner.materialmerger.gles"
    },
    {
      "mesh": 0,
      "name": "Object_2"
    }
  ],
  "samplers": [
    {
      "magFilter": 9729,
      "minFilter": 9987,
      "wrapS": 10497,
      "wrapT": 10497
    }
  ],
  "scene": 0,
  "scenes": [
    {
      "name": "Sketchfab_Scene",
      "nodes": [
        0
      ]
    }
  ],
  "textures": [
    {
      "sampler": 0,
      "source": 0
    },
    {
      "sampler": 0,
      "source": 1
    }
  ]
}
